<svg xmlns="http://www.w3.org/2000/svg" xmlns:xlink="http://www.w3.org/1999/xlink"><defs><linearGradient id="paint0_linear_1_293" x1="19.774" y1="3.00672e-05" x2="105.785" y2="10.6444" gradientUnits="userSpaceOnUse"><stop stop-color="#ED0233"/><stop offset="1" stop-color="#003EB7"/></linearGradient><linearGradient id="paint1_linear_1_293" x1="14" y1="49.52" x2="54.1858" y2="9.18415" gradientUnits="userSpaceOnUse"><stop stop-color="#003D85"/><stop offset="0.885417" stop-color="#B80027"/></linearGradient></defs><symbol id="icon-arrow-next" viewBox="0 0 12 22"><g fill="none"><path d="M1 1L11 11L1 21" stroke="#102654"/></g></symbol><symbol id="icon-arrow-prev-active" viewBox="0 0 58 58"><g fill="none"><circle cx="29" cy="29" r="28" fill="#102654" stroke="#102654"/><path d="M35 13L19 29L35 45" stroke="white"/></g></symbol><symbol id="icon-arrow-prev-dis" viewBox="0 0 18 34"><g fill="none"><path opacity="0.3" d="M17 1L0.999999 17L17 33" stroke="#102654"/></g></symbol><symbol id="icon-arrow-prev-hf" viewBox="0 0 58 58"><g fill="none"><circle cx="29" cy="29" r="28" stroke="#102654"/><path d="M35 13L19 29L35 45" stroke="#102654"/></g></symbol><symbol id="icon-arrow-prev" viewBox="0 0 18 34"><g fill="none"><path d="M17 1L0.999999 17L17 33" stroke="#102654"/></g></symbol><symbol id="icon-close-active" viewBox="0 0 42 42"><g fill="none"><circle cx="21" cy="21" r="20.5" fill="#102654" stroke="#102654"/><path d="M30 21H21H12" stroke="white"/></g></symbol><symbol id="icon-ok" viewBox="0 0 10 17"><path d="M4.68026 2.88903C5.57876 2.88903 6.30946 3.64334 6.30946 4.57085C6.30946 5.49557 5.57876 6.24987 4.68026 6.24987C3.78177 6.24987 3.05107 5.49557 3.05107 4.57085C3.05107 3.64334 3.78177 2.88903 4.68026 2.88903ZM4.68026 8.63012C6.85072 8.63012 8.61523 6.80862 8.61523 4.57085C8.61523 2.33029 6.85072 0.508789 4.68026 0.508789C2.5098 0.508789 0.747998 2.33029 0.747998 4.57085C0.747998 6.80862 2.5098 8.63012 4.68026 8.63012ZM6.27157 11.9435C7.07264 11.7535 7.84394 11.4266 8.55569 10.9657C9.09425 10.6164 9.25663 9.8817 8.91834 9.32575C8.57734 8.76701 7.86829 8.59939 7.32703 8.95139C5.71678 9.99624 3.64375 9.99624 2.03079 8.95139C1.49223 8.59939 0.780474 8.76701 0.442186 9.32575C0.103897 9.8817 0.266275 10.6164 0.804831 10.9657C1.51659 11.4266 2.28789 11.7535 3.08895 11.9435L0.888726 14.212C0.439479 14.6757 0.439479 15.43 0.888726 15.8938C1.11606 16.1257 1.40834 16.243 1.70332 16.243C1.99831 16.243 2.2933 16.1257 2.52063 15.8938L4.68026 13.6644L6.8426 15.8938C7.29185 16.3603 8.01985 16.3603 8.4718 15.8938C8.92105 15.43 8.92105 14.6757 8.4718 14.212L6.27157 11.9435Z"/></symbol><symbol id="icon-open-disabled" viewBox="0 0 42 42"><g fill="none"><g opacity="0.3"><circle cx="21" cy="21" r="20.5" stroke="#102654"/><path d="M21 12V21M21 30V21M21 21H30M21 21H12" stroke="#102654"/></g></g></symbol><symbol id="icon-open-hf" viewBox="0 0 42 42"><g fill="none"><circle cx="21" cy="21" r="21" fill="#102654"/><path d="M21 12V21M21 30V21M21 21H30M21 21H12" stroke="white"/></g></symbol><symbol id="icon-open" viewBox="0 0 42 42"><g fill="none"><circle cx="21" cy="21" r="20.5" stroke="#1C3374"/><path d="M21 12V21M21 30V21M21 21H30M21 21H12" stroke="#1C3374"/></g></symbol><symbol id="icon-play-disabled" viewBox="0 0 100 100"><g fill="none"><g opacity="0.4"><circle cx="50" cy="50" r="49" stroke="#102654" stroke-width="2"/><circle cx="50" cy="50" r="36" fill="white"/><path d="M59 49.5L46.25 56.8612L46.25 42.1388L59 49.5Z" fill="#102654"/></g></g></symbol><symbol id="icon-play-hf" viewBox="0 0 100 100"><g fill="none"><circle cx="50" cy="50" r="49" stroke="#102654" stroke-width="2"/><circle cx="50" cy="50" r="36" fill="white"/><path d="M59 49.5L46.25 56.8612L46.25 42.1388L59 49.5Z" fill="#102654"/></g></symbol><symbol id="icon-play" viewBox="0 0 100 100"><g fill="none"><circle cx="50" cy="50" r="49" stroke="url(#paint0_linear_1_293)" stroke-opacity="0.2" stroke-width="2"/><circle cx="50" cy="50" r="36" fill="url(#paint1_linear_1_293)"/><path d="M59 49.5L46.25 56.8612L46.25 42.1388L59 49.5Z" fill="white"/></g></symbol><symbol id="icon-reddit" viewBox="0 0 15 15"><path d="M8.85101 0.555664C8.40563 0.555664 7.9877 0.781596 7.71963 1.10741C7.45156 1.43323 7.30381 1.8304 7.19616 2.24897C7.02518 2.92201 6.97241 3.66877 6.95975 4.34181C5.70806 4.42505 4.57457 4.79606 3.63316 5.36921C3.2511 5.04815 2.79095 4.86978 2.3498 4.87454C1.84743 4.87929 1.3704 5.09571 1.01579 5.54044C0.338225 6.38947 0.416324 7.77836 1.20154 8.60361C1.15299 8.85808 1.1171 9.11969 1.1171 9.38367C1.1171 12.1805 3.9751 14.4446 7.50011 14.4446C11.0251 14.4446 13.8831 12.1781 13.8831 9.38367C13.8831 9.11969 13.8472 8.85808 13.7987 8.60361C14.5839 7.77836 14.662 6.38947 13.9844 5.54044C13.6298 5.09571 13.1528 4.87929 12.6504 4.87454C12.2093 4.86978 11.7491 5.04815 11.3671 5.36921C10.4299 4.79843 9.30272 4.42743 8.05736 4.34181C8.07424 3.72109 8.11857 3.07659 8.2431 2.59143C8.3212 2.28702 8.41408 2.06584 8.51328 1.94455C8.61249 1.82326 8.68426 1.77332 8.85101 1.77332C9.21195 1.77332 9.25839 1.88985 9.4758 2.17286C9.58556 2.31556 9.71221 2.49393 9.91484 2.66754C10.1175 2.84115 10.4172 2.99098 10.7423 2.99098V1.77332C10.6515 1.77332 10.6346 1.77094 10.5734 1.71624C10.5122 1.66154 10.4278 1.5355 10.3032 1.37378C10.0542 1.04796 9.57079 0.555664 8.85101 0.555664ZM12.3634 0.669819C11.5233 0.669819 10.8436 1.43561 10.8436 2.38215C10.8436 3.32869 11.5233 4.09448 12.3634 4.09448C13.2034 4.09448 13.8831 3.32869 13.8831 2.38215C13.8831 1.43561 13.2034 0.669819 12.3634 0.669819ZM12.3634 1.27865C12.9037 1.27865 13.3428 1.77332 13.3428 2.38215C13.3428 2.99098 12.9037 3.48565 12.3634 3.48565C11.823 3.48565 11.3839 2.99098 11.3839 2.38215C11.3839 1.77332 11.823 1.27865 12.3634 1.27865ZM7.50011 5.29311C10.4911 5.29311 13.0219 7.16953 13.0219 9.38367C13.0219 11.6002 10.4911 13.4742 7.50011 13.4742C4.50913 13.4742 1.9783 11.6002 1.9783 9.38367C1.9783 7.16953 4.50913 5.29311 7.50011 5.29311ZM2.36669 5.84486C2.51655 5.84724 2.67275 5.88529 2.82262 5.95901C2.28015 6.42277 1.84955 6.95549 1.55615 7.55719C1.35351 7.0863 1.40839 6.49887 1.65746 6.18732C1.83899 5.95901 2.09017 5.84248 2.36669 5.84486ZM12.6335 5.84486C12.91 5.84248 13.1612 5.95901 13.3428 6.18732C13.5918 6.49887 13.6467 7.0863 13.4441 7.55719C13.1507 6.95549 12.7201 6.42277 12.1776 5.95901C12.3275 5.88529 12.4837 5.84724 12.6335 5.84486ZM5.33867 7.36693C4.79831 7.36693 4.35927 7.8616 4.35927 8.47043C4.35927 9.07926 4.79831 9.57393 5.33867 9.57393C5.87903 9.57393 6.31807 9.07926 6.31807 8.47043C6.31807 7.8616 5.87903 7.36693 5.33867 7.36693ZM9.66155 7.36693C9.12119 7.36693 8.68215 7.8616 8.68215 8.47043C8.68215 9.07926 9.12119 9.57393 9.66155 9.57393C10.2019 9.57393 10.641 9.07926 10.641 8.47043C10.641 7.8616 10.2019 7.36693 9.66155 7.36693ZM4.81519 11.115C5.15925 11.9165 6.22309 12.6942 7.50011 12.6942C8.77713 12.6942 9.85785 11.9165 10.2019 11.115C9.57712 11.5693 8.59138 11.8761 7.50011 11.8761C6.40883 11.8761 5.43999 11.5693 4.81519 11.115Z"/></symbol><symbol id="icon-rouble" viewBox="0 0 14 20"><g fill="none"><path fill-rule="evenodd" clip-rule="evenodd" d="M1.86667 13.4864V8.09524H4.66667V13.4864H9.8V16.3435H4.66667V20H1.86667V16.3435H0V13.4864H1.86667Z" fill="#102654"/><path fill-rule="evenodd" clip-rule="evenodd" d="M8.63333 2.85714H4.66667V8.09524H8.63333C10.0509 8.09524 11.2 6.92265 11.2 5.47619C11.2 4.02973 10.0509 2.85714 8.63333 2.85714ZM1.86667 0V10.9524H8.63333C11.5973 10.9524 14 8.50061 14 5.47619C14 2.45177 11.5973 0 8.63333 0H1.86667Z" fill="#102654"/><path d="M1.86667 8.09524H0V10.9524H1.86667V8.09524Z" fill="#102654"/></g></symbol><symbol id="icon-vk" viewBox="0 0 13 8"><path d="M7.72271 6.05176C8.16539 5.90867 8.73216 6.99638 9.33552 7.41267C9.78838 7.728 10.1352 7.65993 10.1352 7.65993L11.7434 7.63678C11.7434 7.63678 12.5838 7.58492 12.1865 6.9172C12.1536 6.86163 11.9536 6.4222 10.9895 5.51786C9.98147 4.57185 10.1181 4.72512 11.3317 3.08962C12.0712 2.09267 12.3671 1.48376 12.2745 1.22445C12.1856 0.974862 11.6424 1.03969 11.6424 1.03969L9.83052 1.05219C9.6541 1.05265 9.50453 1.10729 9.43646 1.29066C9.43507 1.29252 9.14891 2.06211 8.76735 2.7164C7.96118 4.10046 7.63936 4.17408 7.506 4.08749C7.19992 3.88699 7.27725 3.28317 7.27725 2.85392C7.27725 1.51246 7.47729 0.953099 6.88551 0.808627C6.68779 0.760469 6.54332 0.728982 6.03905 0.724351C5.39449 0.714627 4.84716 0.724351 4.53692 0.876695C4.33086 0.979956 4.17296 1.20639 4.26881 1.21935C4.3892 1.23556 4.65916 1.29344 4.80363 1.4907C4.98932 1.74631 4.98376 2.3191 4.98376 2.3191C4.98376 2.3191 5.0898 3.89857 4.73371 4.09444C4.48922 4.22872 4.1549 3.9546 3.43578 2.69788C3.06858 2.05516 2.79121 1.34484 2.79121 1.34484C2.79121 1.34484 2.7375 1.21287 2.64026 1.14063C2.52449 1.05497 2.36243 1.02765 2.36243 1.02765L0.642654 1.03876C0.642654 1.03876 0.384271 1.04617 0.289345 1.16008C0.20507 1.26103 0.2824 1.4694 0.2824 1.4694C0.2824 1.4694 1.62942 4.65566 3.15471 6.26059C4.55312 7.73402 6.14231 7.63632 6.14231 7.63632H6.86236C6.86236 7.63632 7.07953 7.61131 7.19066 7.49185C7.29439 7.38071 7.28976 7.17188 7.28976 7.17188C7.28976 7.17188 7.2754 6.1953 7.72271 6.05176Z"/></symbol><symbol id="logo" viewBox="0 0 120 23"><g fill="none"><path d="M5.78473 22.8115C4.58873 22.8115 3.55139 22.623 2.67269 22.2459C1.794 21.8689 1.12277 21.2027 0.65902 20.2475C0.219673 19.2923 0 17.9475 0 16.2131V14.9311C0.585796 14.9311 1.1838 14.9311 1.794 14.9311C2.4042 14.9311 3.0022 14.9311 3.588 14.9311V16.5148C3.588 17.5705 3.68563 18.3874 3.8809 18.9656C4.07616 19.5437 4.34465 19.9459 4.68637 20.1721C5.02808 20.3732 5.41861 20.4738 5.85796 20.4738C6.56579 20.4738 7.12718 20.235 7.54212 19.7574C7.98147 19.2546 8.20114 18.3246 8.20114 16.9672C8.20114 15.9617 8.05469 15.2077 7.76179 14.7049C7.46889 14.2022 7.00514 13.8 6.37053 13.4984C5.76032 13.1716 4.96706 12.8071 3.99073 12.4049C3.18526 12.0279 2.48963 11.588 1.90384 11.0852C1.31804 10.5825 0.878693 9.94153 0.585796 9.1623C0.292898 8.38306 0.146449 7.4153 0.146449 6.25902C0.146449 4.85137 0.317306 3.70765 0.65902 2.82787C1.02514 1.92295 1.63535 1.2694 2.48963 0.867213C3.34392 0.439892 4.4911 0.226231 5.93118 0.226231C7.7862 0.226231 9.20187 0.666121 10.1782 1.5459C11.1545 2.40055 11.6427 3.65738 11.6427 5.31639V7.91803C11.0813 7.91803 10.5077 7.91803 9.92191 7.91803C9.36053 7.91803 8.78693 7.91803 8.20114 7.91803V6.37213C8.20114 5.21585 8.01808 4.38634 7.65196 3.88361C7.31024 3.35574 6.74885 3.0918 5.96779 3.0918C5.16232 3.0918 4.57653 3.34317 4.21041 3.8459C3.86869 4.3235 3.69784 5.09016 3.69784 6.1459C3.69784 7.05082 3.86869 7.75465 4.21041 8.25738C4.55212 8.73497 4.99147 9.11202 5.52845 9.38853C6.08983 9.66503 6.66343 9.91639 7.24922 10.1426C8.34759 10.5699 9.23849 11.0098 9.92191 11.4623C10.6053 11.9148 11.1057 12.518 11.423 13.2721C11.7403 14.0262 11.899 15.0945 11.899 16.477C11.899 18.0607 11.6427 19.3175 11.1301 20.2475C10.642 21.1525 9.93412 21.806 9.00661 22.2082C8.10351 22.6104 7.02955 22.8115 5.78473 22.8115Z" fill="white"/><path d="M21.1908 23C20.3609 23 19.592 22.9372 18.8842 22.8115C18.1763 22.6858 17.5661 22.4344 17.0536 22.0574C16.541 21.6803 16.1383 21.1148 15.8454 20.3607C15.5525 19.6066 15.406 18.5885 15.406 17.3066V0.263936H18.9208V18.2492C18.9208 18.9279 19.0184 19.4557 19.2137 19.8328C19.4334 20.1847 19.7141 20.4235 20.0558 20.5492C20.3975 20.6749 20.7758 20.7377 21.1908 20.7377C21.6057 20.7377 21.984 20.6749 22.3257 20.5492C22.6674 20.4235 22.9359 20.1847 23.1312 19.8328C23.3509 19.4557 23.4607 18.9279 23.4607 18.2492V0.263936H26.9389V17.2689C26.9389 18.5508 26.7924 19.5814 26.4995 20.3607C26.231 21.1148 25.8405 21.6803 25.3279 22.0574C24.8154 22.4344 24.2052 22.6858 23.4973 22.8115C22.7895 22.9372 22.0206 23 21.1908 23Z" fill="white"/><path d="M31.2648 22.5475V0.263936H38.5873C39.9541 0.263936 41.0037 0.578143 41.7359 1.20656C42.4682 1.83497 42.8343 2.76503 42.8343 3.99672V7.95574C42.8343 8.91093 42.7123 9.80328 42.4682 10.6328C42.2485 11.4372 41.8092 12.0907 41.1501 12.5934C40.5155 13.0962 39.588 13.3475 38.3676 13.3475H34.9261V22.5475H31.2648ZM34.9261 11.3115H37.1594C37.8917 11.3115 38.4408 11.0224 38.807 10.4443C39.1731 9.84098 39.3561 8.87322 39.3561 7.54098V5.54262C39.3561 4.3612 39.1975 3.51913 38.8802 3.01639C38.5629 2.51366 38.1235 2.2623 37.5621 2.2623H34.9261V11.3115Z" fill="white"/><path d="M46.2987 22.5475V0.263936H56.0376V2.82787H49.96V9.57705H54.9758V12.4049H49.96V20.059H56.0376V22.5475H46.2987Z" fill="white"/><path d="M59.3662 22.5475V0.263936H66.835C68.2019 0.263936 69.2515 0.578143 69.9837 1.20656C70.7403 1.83497 71.1187 2.76503 71.1187 3.99672V7.54098C71.1187 8.77268 70.7892 9.77814 70.1301 10.5574C69.4711 11.3115 68.4948 11.7262 67.2012 11.8016C68.031 11.877 68.6168 12.1536 68.9585 12.6311C69.3247 13.1087 69.6542 13.8503 69.9471 14.8557L72.034 22.5475H68.1531L66.4323 15.1197C66.2615 14.4913 66.0662 13.9383 65.8465 13.4607C65.6268 12.9831 65.2729 12.7443 64.7848 12.7443H62.9908V22.5475H59.3662ZM62.9908 10.218H65.3339C66.1882 10.218 66.7862 9.9918 67.1279 9.53934C67.4941 9.08689 67.6771 8.39563 67.6771 7.46557V4.63771C67.6771 3.8082 67.5063 3.20492 67.1646 2.82787C66.8472 2.45082 66.3469 2.2623 65.6635 2.2623H62.9908V10.218Z" fill="white"/><path d="M79.8687 22.9623C79.0388 22.9623 78.2578 22.824 77.5255 22.5475C76.7933 22.2962 76.1953 21.7809 75.7315 21.0016C75.2922 20.1973 75.0725 19.0033 75.0725 17.4197V4.97705C75.0725 3.61967 75.3166 2.58907 75.8048 1.88525C76.2929 1.15628 76.9763 0.666121 77.855 0.414755C78.7337 0.138252 79.7467 0 80.8939 0C82.041 0 83.054 0.138252 83.9327 0.414755C84.8114 0.691258 85.4948 1.19399 85.983 1.92295C86.4955 2.62678 86.7518 3.64481 86.7518 4.97705V7.99344H83.3469V4.82623C83.3469 4.07213 83.237 3.50656 83.0174 3.12951C82.8221 2.75246 82.5414 2.50109 82.1753 2.37541C81.8336 2.24973 81.4186 2.18689 80.9305 2.18689C80.4911 2.18689 80.0884 2.24973 79.7223 2.37541C79.3561 2.50109 79.0632 2.75246 78.8436 3.12951C78.6483 3.50656 78.5507 4.07213 78.5507 4.82623V18.2115C78.5507 18.9656 78.6483 19.5311 78.8436 19.9082C79.0632 20.2852 79.3561 20.5366 79.7223 20.6623C80.0884 20.788 80.4911 20.8508 80.9305 20.8508C81.6383 20.8508 82.2119 20.6372 82.6512 20.2098C83.115 19.7574 83.3469 19.0913 83.3469 18.2115V13.6869H81.1868V11.6131H86.7518V22.5475H84.1157L83.9327 20.6623C83.8839 20.7628 83.8228 20.876 83.7496 21.0016C83.6764 21.1022 83.6154 21.1902 83.5666 21.2656C83.2737 21.718 82.8343 22.1202 82.2485 22.4721C81.6871 22.7989 80.8939 22.9623 79.8687 22.9623Z" fill="white"/><path d="M93.3929 22.5475V12.9705L89.3656 0.263936H92.8437L95.1137 7.88033L95.2968 9.04918L95.5164 7.88033L97.8962 0.263936H101.155L96.9077 13.159V22.5475H93.3929Z" fill="white"/><path d="M104.11 22.5475V0.263936H108.431L112.055 16.1L115.716 0.263936H120V22.5475H116.888V5.3541L113.263 22.5475H110.847L107.222 5.3541V22.5475H104.11Z" fill="white"/></g></symbol></svg>